<?xml version="1.0" standalone="no"?>
<!DOCTYPE svg PUBLIC "-//W3C//DTD SVG 20010904//EN"
 "http://www.w3.org/TR/2001/REC-SVG-20010904/DTD/svg10.dtd">
<svg version="1.0" xmlns="http://www.w3.org/2000/svg"
 viewBox="0 0 175.000000 198.000000"
 preserveAspectRatio="xMidYMid meet">

<g transform="translate(0.000000,198.000000) scale(0.100000,-0.100000)"
fill="#ffffff" stroke="none">
<path d="M202 1689 l-92 -231 250 -620 c137 -342 262 -639 277 -661 31 -45 98
-92 153 -107 47 -13 155 -13 205 1 58 16 123 65 155 116 32 49 100 214 100
240 0 28 -153 434 -160 426 -4 -4 -42 -102 -85 -218 -42 -115 -86 -219 -96
-230 -19 -19 -19 -19 -38 0 -10 11 -40 78 -66 150 -26 72 -89 243 -140 380
-51 138 -152 412 -225 610 -73 198 -135 363 -139 367 -3 4 -48 -97 -99 -223z"/>
<path d="M783 1906 c-60 -19 -107 -51 -139 -93 -27 -36 -114 -232 -114 -259 0
-12 59 -178 130 -366 12 -32 25 -58 29 -58 4 0 43 96 86 213 43 116 85 220 95
230 16 17 17 17 37 0 14 -12 111 -262 289 -743 147 -399 271 -736 276 -750 9
-22 22 5 104 209 l93 234 -229 573 c-126 315 -241 598 -255 629 -35 79 -75
126 -137 160 -45 24 -66 29 -138 32 -52 2 -101 -2 -127 -11z"/>
<path d="M1412 1737 c-34 -94 -62 -178 -62 -185 0 -20 173 -443 179 -437 2 3
35 80 73 171 l67 165 -91 230 c-51 126 -94 229 -97 229 -3 0 -34 -78 -69 -173z"/>
<path d="M834 1116 c-35 -16 -72 -58 -80 -93 -17 -67 30 -145 99 -164 83 -22
159 29 172 116 15 101 -97 184 -191 141z"/>
<path d="M242 850 c-5 -14 -36 -90 -68 -169 -31 -79 -57 -150 -57 -156 0 -17
176 -455 183 -455 7 0 130 333 130 353 0 15 -151 402 -170 437 -7 12 -10 10
-18 -10z"/>
</g>
</svg>
